<?xml version="1.0" encoding="UTF-8"?>
<svg id="Capa_1" data-name="Capa 1" xmlns="http://www.w3.org/2000/svg" viewBox="0 0 388.93 89">
  <defs>
    <style>
      .cls-1 {
        letter-spacing: .13em;
      }

      .cls-2 {
        font-family: NeueHaasDisplay-ThinItalic, 'Neue Haas Grotesk Display Pro';
        font-size: 25px;
        font-style: italic;
        font-weight: 200;
      }

      .cls-2, .cls-3 {
        fill: #283562;
      }

      .cls-4 {
        letter-spacing: .13em;
      }

      .cls-5 {
        fill: #f08265;
      }

      .cls-5, .cls-3 {
        stroke-width: 0px;
      }

      .cls-6 {
        letter-spacing: .14em;
      }

      .cls-7 {
        letter-spacing: .15em;
      }

      .cls-8 {
        letter-spacing: .13em;
      }

      .cls-9 {
        letter-spacing: .14em;
      }

      .cls-10 {
        letter-spacing: .15em;
      }
    </style>
  </defs>
  <path class="cls-3" d="m9.36,65.03l13.82-20.61-13.59-20.25h9.63l8.77,13.08L52.97,0,11.92,13.28l-7.91,2.56-4.01,1.3v46.26c0,1.62,1.31,2.94,2.94,2.94h3.98c.98,0,1.89-.49,2.44-1.3Z"/>
  <path class="cls-5" d="m53.96,22.67h-3.98c-.98,0-1.89.49-2.44,1.3l-14.22,21.21,12.95,19.3h-9.63l-8.14-12.13L3.94,89l40.39-13.07,6.85-2.22,5.72-1.85V25.61c0-1.62-1.31-2.94-2.94-2.94Z"/>
  <text class="cls-2" transform="translate(65.14 51.19)"><tspan class="cls-7" x="0" y="0">Vi</tspan><tspan class="cls-6" x="25.4" y="0">v</tspan><tspan class="cls-10" x="39.77" y="0">e nu</tspan><tspan class="cls-8" x="93.7" y="0">e</tspan><tspan class="cls-9" x="108.92" y="0">v</tspan><tspan class="cls-1" x="123.3" y="0">a</tspan><tspan class="cls-7" x="138.62" y="0">s </tspan><tspan class="cls-4" x="160.45" y="0">e</tspan><tspan class="cls-7" x="175.67" y="0">xperienci</tspan><tspan class="cls-4" x="294.22" y="0">a</tspan><tspan class="cls-7" x="309.55" y="0">s</tspan></text>
</svg>