<?xml version="1.0" encoding="UTF-8"?>
<svg id="Capa_1" data-name="Capa 1" xmlns="http://www.w3.org/2000/svg" viewBox="0 0 91.45 143.04">
  <defs>
    <style>
      .cls-1 {
        fill: #f08265;
      }

      .cls-1, .cls-2 {
        stroke-width: 0px;
      }

      .cls-2 {
        fill: #283562;
      }
    </style>
  </defs>
  <path class="cls-2" d="m15.04,104.51l22.21-33.13L15.42,38.84h15.47l14.1,21.02L85.13,0,19.15,21.34l-12.71,4.11-6.44,2.08v74.34c0,2.61,2.11,4.72,4.72,4.72h6.4c1.57,0,3.04-.78,3.92-2.09Z"/>
  <path class="cls-1" d="m86.73,36.44h-6.4c-1.57,0-3.04.78-3.92,2.09l-22.86,34.09,20.81,31.02h-15.47l-13.07-19.49L6.33,143.04l64.91-21,11.02-3.56,9.2-2.98V41.15c0-2.61-2.11-4.72-4.72-4.72Z"/>
</svg>